<svg xmlns="http://www.w3.org/2000/svg" xmlns:xlink="http://www.w3.org/1999/xlink" xmlns:fi="http://pattern.flaticon.com/" x="0" y="0" width="700" height="350" viewBox="0 0 700 350"><rect x="0px" y="0px" width="100%" height="100%" opacity="1" fill="#ffffff"/><defs><g transform="matrix(0.1171875 0 0 0.1171875 14 246)" id="L1_0"><path d="M343.495,285.792c14.366-9.953,27.601-19.937,39.64-29.792c-12.039-9.855-25.274-19.839-39.64-29.792   C343.827,235.848,344,245.778,344,256S343.827,276.151,343.495,285.792z" fill="none"/><path d="M209.617,424.041c0.199,0.01,0.396,0.03,0.595,0.044c0.333,0.023,0.667,0.043,0.998,0.076   c0.251,0.025,0.499,0.061,0.748,0.092c0.272,0.034,0.546,0.063,0.817,0.104c0.281,0.042,0.557,0.095,0.835,0.144   c0.235,0.042,0.47,0.079,0.703,0.126c0.301,0.06,0.599,0.131,0.897,0.2c0.203,0.047,0.408,0.09,0.61,0.141   c0.321,0.081,0.637,0.171,0.954,0.261c0.174,0.049,0.348,0.095,0.521,0.148c0.336,0.102,0.667,0.213,0.999,0.326   c0.148,0.05,0.297,0.098,0.443,0.15c0.35,0.125,0.696,0.259,1.041,0.395c0.121,0.048,0.244,0.094,0.364,0.144   c0.362,0.148,0.719,0.306,1.074,0.467c0.099,0.045,0.198,0.088,0.297,0.134c0.371,0.173,0.737,0.355,1.101,0.542   c0.077,0.04,0.154,0.078,0.231,0.118c0.379,0.199,0.752,0.406,1.122,0.619c0.057,0.033,0.115,0.065,0.171,0.099   c0.384,0.224,0.761,0.457,1.135,0.697c0.04,0.026,0.08,0.051,0.119,0.076c0.385,0.25,0.764,0.508,1.137,0.773   c0.026,0.019,0.052,0.037,0.079,0.056c0.383,0.274,0.76,0.557,1.13,0.848c0.014,0.011,0.028,0.022,0.043,0.034   c0.379,0.299,0.751,0.605,1.116,0.92c0.005,0.004,0.01,0.009,0.015,0.013C235.698,437.655,240,446.322,240,456   c0,8.855-3.598,16.87-9.411,22.664C238.874,489.933,247.556,496,256,496c22.539,0,46.779-43.186,60.597-113.392   c-18.895-7.104-39.146-15.954-60.597-26.678c-21.452,10.724-41.702,19.574-60.598,26.678c2.98,15.139,6.443,29.022,10.27,41.486   c0.77-0.055,1.544-0.093,2.327-0.093C208.542,424,209.081,424.014,209.617,424.041z" fill="none"/><path d="M300,179.79c8.853,5.111,17.365,10.226,25.548,15.333c-1.437-17.417-3.466-33.872-5.981-49.225   c-14.553,5.498-29.818,11.969-45.621,19.433C282.461,169.864,291.147,174.679,300,179.79z" fill="none"/><path d="M256,337.874c11.775-5.976,23.795-12.474,36-19.521c12.204-7.046,23.842-14.207,34.905-21.417   C327.617,283.751,328,270.092,328,256c0-14.093-0.383-27.751-1.094-40.937c-11.063-7.21-22.701-14.37-34.905-21.417   c-12.205-7.046-24.225-13.544-36-19.521c-11.776,5.977-23.796,12.475-36,19.521c-12.205,7.046-23.842,14.207-34.906,21.417   C184.382,228.249,184,241.907,184,256c0,14.093,0.382,27.751,1.094,40.937c11.063,7.21,22.701,14.37,34.906,21.417   C232.204,325.4,244.224,331.898,256,337.874z M256,208c26.51,0,48,21.49,48,48s-21.49,48-48,48c-26.51,0-48-21.49-48-48   S229.49,208,256,208z" fill="none"/><path d="M392,152c-5.908,0-11.438-1.608-16.188-4.4c-0.005-0.003-0.01-0.006-0.016-0.009   c-0.383-0.225-0.76-0.459-1.132-0.7c-0.041-0.026-0.082-0.052-0.123-0.079c-0.349-0.228-0.693-0.463-1.032-0.704   c-0.061-0.043-0.122-0.086-0.182-0.129c-0.323-0.233-0.642-0.471-0.956-0.716c-0.073-0.056-0.145-0.113-0.217-0.17   c-0.302-0.24-0.601-0.484-0.894-0.734c-0.078-0.066-0.155-0.134-0.232-0.201c-0.286-0.248-0.568-0.5-0.845-0.758   c-0.078-0.073-0.154-0.147-0.232-0.221c-0.273-0.259-0.542-0.521-0.806-0.79c-0.073-0.075-0.144-0.152-0.217-0.227   c-0.264-0.274-0.525-0.551-0.779-0.834c-0.057-0.063-0.111-0.13-0.168-0.194c-0.266-0.302-0.529-0.605-0.783-0.916   c-0.002-0.003-0.005-0.006-0.007-0.009c-0.823-1.009-1.581-2.071-2.278-3.176c-0.069-0.109-0.141-0.216-0.209-0.326   c-0.156-0.254-0.302-0.513-0.451-0.771c-0.1-0.174-0.203-0.347-0.3-0.523c-0.131-0.238-0.255-0.481-0.381-0.723   c-0.105-0.203-0.211-0.405-0.312-0.61c-0.114-0.232-0.221-0.466-0.33-0.701c-0.102-0.222-0.205-0.443-0.302-0.668   c-0.1-0.23-0.194-0.462-0.289-0.694c-0.014-0.034-0.028-0.067-0.042-0.101c-8.603,2.342-17.604,5.106-26.953,8.3   c3.295,19.916,5.756,41.878,7.195,65.818c20.013,13.216,37.803,26.328,53.403,39.14c53.891-47.07,79.171-89.655,67.902-109.175   c-5.363-9.289-19.394-14.019-39.919-13.937C422.862,138.774,408.979,152,392,152z" fill="none"/><path d="M65.617,168.041c0.2,0.01,0.396,0.03,0.595,0.044c0.333,0.023,0.667,0.043,0.997,0.076   c0.251,0.025,0.499,0.061,0.748,0.092c0.272,0.034,0.546,0.063,0.817,0.104c0.28,0.042,0.557,0.095,0.835,0.144   c0.234,0.042,0.47,0.079,0.703,0.126c0.301,0.06,0.599,0.131,0.897,0.2c0.203,0.047,0.408,0.09,0.61,0.141   c0.32,0.08,0.635,0.171,0.951,0.26c0.175,0.05,0.351,0.096,0.525,0.149c0.336,0.102,0.667,0.213,0.998,0.326   c0.147,0.05,0.296,0.098,0.443,0.15c0.349,0.124,0.693,0.258,1.037,0.394c0.123,0.049,0.248,0.095,0.37,0.146   c0.362,0.149,0.719,0.306,1.073,0.467c0.098,0.045,0.197,0.088,0.294,0.133c0.371,0.173,0.737,0.355,1.1,0.542   c0.078,0.04,0.156,0.079,0.233,0.12c0.377,0.198,0.75,0.405,1.118,0.617c0.059,0.034,0.117,0.067,0.176,0.101   c0.382,0.224,0.759,0.456,1.131,0.695c0.041,0.026,0.082,0.052,0.123,0.079c0.384,0.249,0.762,0.507,1.134,0.772   c0.027,0.019,0.053,0.038,0.08,0.057c0.383,0.274,0.759,0.556,1.129,0.847c0.015,0.012,0.03,0.023,0.044,0.035   c0.379,0.298,0.75,0.604,1.115,0.919c0.006,0.005,0.011,0.01,0.017,0.015c0.371,0.321,0.734,0.649,1.09,0.986l0,0l0,0   c6.155,5.832,10,14.077,10,23.226c0,7.434-2.542,14.27-6.795,19.703c7.944,8.261,16.909,16.79,26.85,25.473   c15.6-12.812,33.39-25.924,53.403-39.14c1.439-23.939,3.899-45.902,7.195-65.818C108.944,117.081,59.424,116.48,48.154,136   c-4.611,7.987-3.093,19.841,3.989,34.279C55.811,168.814,59.809,168,64,168C64.542,168,65.081,168.014,65.617,168.041z" fill="none"/><path d="M316.597,129.392C302.779,59.186,278.539,16,256,16c-22.54,0-46.779,43.186-60.598,113.392   c18.895,7.104,39.146,15.954,60.598,26.678C277.452,145.347,297.702,136.496,316.597,129.392z" fill="none"/><path d="M168,256c0-10.222,0.173-20.151,0.505-29.792c-14.365,9.953-27.601,19.937-39.64,29.792   c12.039,9.855,25.274,19.839,39.64,29.792C168.173,276.151,168,266.222,168,256z" fill="none"/><path d="M238.053,165.331c-15.802-7.464-31.067-13.935-45.621-19.433c-2.515,15.353-4.544,31.808-5.981,49.225   c8.183-5.107,16.696-10.222,25.548-15.333C220.853,174.679,229.538,169.864,238.053,165.331z" fill="none"/><path d="M395.944,266.825c-15.6,12.812-33.39,25.924-53.403,39.14c-1.439,23.939-3.899,45.902-7.195,65.818   c67.709,23.136,117.229,23.737,128.499,4.217C475.116,356.48,449.835,313.895,395.944,266.825z" fill="none"/><path d="M186.452,316.877c1.437,17.417,3.466,33.872,5.981,49.225c14.553-5.498,29.818-11.969,45.62-19.433   c-8.514-4.533-17.2-9.348-26.053-14.459C203.147,327.099,194.635,321.984,186.452,316.877z" fill="none"/><path d="M300,332.21c-8.853,5.111-17.539,9.926-26.053,14.459c15.802,7.464,31.067,13.935,45.621,19.433   c2.515-15.353,4.544-31.808,5.981-49.225C317.365,321.984,308.853,327.099,300,332.21z" fill="none"/><path d="M116.056,266.825C62.165,313.895,36.884,356.48,48.154,376c11.27,19.52,60.79,18.919,128.499-4.217   c-3.296-19.916-5.756-41.878-7.195-65.818C149.445,292.749,131.655,279.637,116.056,266.825z" fill="none"/><path d="M408.689,256c62.099-54.576,83.729-102.512,69.014-128c-8.123-14.07-27.717-21.96-56.806-21.759   C422.884,110.409,424,115.074,424,120c0,0.694-0.03,1.38-0.073,2.063c20.525-0.083,34.556,4.647,39.919,13.937   c11.27,19.52-14.011,62.105-67.902,109.175c-15.6-12.812-33.39-25.924-53.403-39.14c-1.439-23.939-3.899-45.902-7.195-65.818   c9.35-3.195,18.35-5.959,26.953-8.3c-0.081-0.202-0.16-0.404-0.237-0.608c-0.087-0.229-0.17-0.46-0.251-0.691   c-0.087-0.247-0.171-0.495-0.252-0.745c-0.074-0.229-0.146-0.458-0.215-0.689c-0.077-0.259-0.151-0.519-0.221-0.78   c-0.062-0.228-0.123-0.455-0.18-0.685c-0.067-0.271-0.129-0.545-0.189-0.819c-0.05-0.225-0.1-0.449-0.144-0.675   c-0.057-0.286-0.105-0.574-0.154-0.863c-0.037-0.219-0.076-0.438-0.109-0.658c-0.045-0.306-0.081-0.615-0.117-0.924   c-0.024-0.207-0.053-0.413-0.073-0.622c-0.034-0.345-0.057-0.694-0.079-1.042c-0.011-0.176-0.028-0.349-0.037-0.526   c-0.026-0.526-0.04-1.056-0.04-1.589c0-1.585,0.12-3.142,0.342-4.665c-8.917,2.336-18.254,5.136-27.998,8.432   C316.13,42.7,285.43,0,256,0c-29.431,0-60.13,42.7-76.344,123.768C101.342,97.276,49.013,102.512,34.297,128   c-7.198,12.468-5.687,30.312,4.989,51.672c3.398-4.126,7.813-7.379,12.857-9.393c-7.082-14.437-8.6-26.292-3.989-34.279   c11.27-19.52,60.79-18.919,128.499,4.217c-3.296,19.916-5.756,41.878-7.195,65.818c-20.013,13.216-37.803,26.328-53.403,39.14   c-9.941-8.683-18.907-17.212-26.85-25.473c-3.442,4.397-8.005,7.868-13.263,9.985c8.041,8.544,17.159,17.338,27.369,26.312   c-62.099,54.576-83.729,102.512-69.014,128c14.715,25.488,67.044,30.724,145.358,4.232c3.016,15.081,6.532,28.838,10.45,41.235   c4.504-3.043,9.827-4.961,15.567-5.374c-3.828-12.463-7.291-26.347-10.27-41.486c18.895-7.104,39.146-15.954,60.598-26.678   c21.452,10.724,41.702,19.574,60.597,26.678C302.779,452.814,278.539,496,256,496c-8.444,0-17.126-6.066-25.411-17.336   c-3.711,3.699-8.328,6.486-13.486,8.015C229.38,503.423,242.817,512,256,512c29.43,0,60.13-42.7,76.344-123.768   c78.313,26.491,130.643,21.255,145.358-4.232C492.418,358.512,470.788,310.576,408.689,256z M383.135,256   c-12.039,9.855-25.274,19.839-39.64,29.792C343.827,276.151,344,266.222,344,256s-0.173-20.151-0.505-29.792   C357.861,236.161,371.096,246.145,383.135,256z M184,256c0-14.093,0.382-27.751,1.094-40.937   c11.063-7.21,22.701-14.37,34.906-21.417c12.204-7.046,24.224-13.544,36-19.521c11.775,5.977,23.795,12.475,36,19.521   c12.204,7.046,23.842,14.207,34.905,21.417C327.617,228.249,328,241.907,328,256c0,14.093-0.383,27.751-1.094,40.937   c-11.063,7.21-22.701,14.37-34.905,21.417c-12.205,7.046-24.225,13.544-36,19.521c-11.776-5.976-23.796-12.474-36-19.521   c-12.205-7.046-23.842-14.207-34.906-21.417C184.382,283.751,184,270.092,184,256z M325.548,195.123   c-8.183-5.107-16.696-10.222-25.548-15.333c-8.853-5.111-17.539-9.926-26.053-14.459c15.802-7.464,31.067-13.935,45.621-19.433   C322.083,161.251,324.111,177.705,325.548,195.123z M256,16c22.539,0,46.779,43.186,60.597,113.392   c-18.895,7.104-39.146,15.954-60.597,26.678c-21.452-10.724-41.702-19.574-60.598-26.678C209.221,59.186,233.46,16,256,16z    M192.432,145.898c14.553,5.498,29.818,11.969,45.621,19.433c-8.515,4.533-17.2,9.348-26.053,14.459   c-8.853,5.111-17.365,10.226-25.548,15.333C187.888,177.705,189.917,161.251,192.432,145.898z M168.505,226.208   C168.173,235.848,168,245.778,168,256s0.173,20.151,0.505,29.792c-14.365-9.953-27.601-19.937-39.64-29.792   C140.903,246.145,154.139,236.161,168.505,226.208z M48.154,376c-11.27-19.52,14.011-62.105,67.902-109.175   c15.6,12.812,33.39,25.924,53.403,39.14c1.439,23.939,3.899,45.902,7.195,65.818C108.944,394.918,59.424,395.519,48.154,376z    M192.432,366.102c-2.515-15.353-4.544-31.808-5.981-49.225c8.183,5.107,16.696,10.222,25.548,15.333   c8.853,5.111,17.538,9.926,26.053,14.459C222.251,354.133,206.986,360.604,192.432,366.102z M273.947,346.669   c8.515-4.533,17.2-9.348,26.053-14.459c8.853-5.111,17.365-10.226,25.548-15.333c-1.437,17.417-3.466,33.872-5.981,49.225   C305.014,360.604,289.749,354.133,273.947,346.669z M463.846,376c-11.27,19.52-60.79,18.919-128.499-4.217   c3.296-19.916,5.756-41.878,7.195-65.818c20.013-13.216,37.803-26.328,53.403-39.14C449.835,313.895,475.116,356.48,463.846,376z" fill="#5c546a"/><circle cx="256" cy="256" r="48" fill="#ffcf00"/><path d="M240,456c0-9.678-4.302-18.345-11.091-24.213c0.371,0.321,0.735,0.65,1.091,0.987   c-1.268-0.153-2.557-0.241-3.866-0.241c-17.673,0-32,14.327-32,32c0,9.149,3.845,17.394,10,23.226   c-4.453-0.537-8.625-1.988-12.323-4.16c4.75,2.792,10.281,4.4,16.189,4.4c3.164,0,6.217-0.466,9.103-1.322   c5.158-1.528,9.775-4.316,13.486-8.015C236.402,472.87,240,464.855,240,456z" fill="#ffedb9"/><path d="M194.133,464.533c0-17.673,14.327-32,32-32c1.31,0,2.598,0.088,3.866,0.241   c-0.356-0.337-0.72-0.666-1.091-0.987c-0.005-0.004-0.01-0.009-0.015-0.013c-0.365-0.315-0.737-0.622-1.116-0.92   c-0.014-0.011-0.029-0.022-0.043-0.034c-0.37-0.291-0.747-0.573-1.13-0.848c-0.026-0.019-0.052-0.037-0.079-0.056   c-0.373-0.266-0.752-0.524-1.137-0.773c-0.04-0.026-0.08-0.051-0.119-0.076c-0.373-0.24-0.751-0.472-1.135-0.697   c-0.057-0.033-0.114-0.066-0.171-0.099c-0.37-0.214-0.743-0.42-1.122-0.619c-0.076-0.04-0.154-0.079-0.231-0.118   c-0.363-0.187-0.73-0.369-1.101-0.542c-0.098-0.046-0.198-0.089-0.297-0.134c-0.355-0.161-0.712-0.319-1.074-0.467   c-0.121-0.05-0.243-0.095-0.364-0.144c-0.344-0.137-0.69-0.271-1.041-0.395c-0.147-0.052-0.296-0.1-0.443-0.15   c-0.331-0.113-0.663-0.224-0.999-0.326c-0.172-0.052-0.347-0.098-0.521-0.148c-0.317-0.09-0.633-0.181-0.954-0.261   c-0.202-0.051-0.406-0.094-0.61-0.141c-0.298-0.069-0.596-0.14-0.897-0.2c-0.233-0.047-0.469-0.084-0.703-0.126   c-0.278-0.049-0.555-0.102-0.835-0.144c-0.27-0.041-0.544-0.07-0.817-0.104c-0.25-0.031-0.497-0.067-0.748-0.092   c-0.33-0.033-0.664-0.053-0.998-0.076c-0.198-0.014-0.395-0.034-0.595-0.044C209.081,424.014,208.542,424,208,424   c-0.784,0-1.558,0.038-2.327,0.093c-5.74,0.413-11.063,2.33-15.567,5.374C181.595,435.218,176,444.955,176,456   c0,0.533,0.014,1.062,0.04,1.589c0.009,0.176,0.026,0.35,0.037,0.525c0.023,0.349,0.045,0.697,0.079,1.042   c0.021,0.208,0.049,0.415,0.073,0.622c0.036,0.309,0.072,0.618,0.117,0.924c0.032,0.221,0.072,0.439,0.109,0.659   c0.049,0.288,0.098,0.577,0.154,0.863c0.045,0.226,0.095,0.451,0.144,0.675c0.06,0.274,0.122,0.548,0.189,0.819   c0.057,0.229,0.118,0.457,0.18,0.685c0.071,0.261,0.144,0.522,0.222,0.78c0.069,0.231,0.141,0.461,0.215,0.689   c0.081,0.25,0.165,0.498,0.252,0.745c0.082,0.232,0.164,0.462,0.251,0.691c0.09,0.238,0.184,0.473,0.279,0.708   c0.094,0.232,0.189,0.465,0.289,0.694c0.097,0.224,0.199,0.444,0.301,0.665c0.109,0.236,0.217,0.472,0.331,0.705   c0.101,0.204,0.206,0.405,0.311,0.607c0.125,0.243,0.25,0.486,0.381,0.725c0.097,0.176,0.2,0.349,0.301,0.523   c0.149,0.258,0.295,0.518,0.451,0.771c0.067,0.11,0.14,0.217,0.209,0.326c0.697,1.105,1.456,2.169,2.279,3.177   c0.002,0.003,0.004,0.005,0.006,0.008c0.255,0.313,0.519,0.617,0.786,0.92c0.055,0.063,0.108,0.127,0.164,0.189   c0.255,0.285,0.518,0.563,0.783,0.838c0.071,0.074,0.141,0.15,0.213,0.223c0.264,0.269,0.534,0.531,0.807,0.791   c0.077,0.073,0.154,0.148,0.231,0.221c0.277,0.258,0.56,0.51,0.846,0.759c0.077,0.067,0.153,0.134,0.231,0.2   c0.294,0.25,0.592,0.495,0.895,0.734c0.072,0.057,0.144,0.114,0.217,0.171c0.314,0.244,0.633,0.483,0.956,0.716   c0.06,0.043,0.12,0.086,0.181,0.128c0.34,0.241,0.684,0.477,1.034,0.705c0.04,0.026,0.08,0.051,0.12,0.077   c0.373,0.241,0.751,0.476,1.135,0.701c0.004,0.003,0.009,0.005,0.013,0.008c3.697,2.172,7.869,3.623,12.323,4.16   C197.979,481.927,194.133,473.682,194.133,464.533z" fill="#ffd586"/><path d="M410.133,96.533c-17.673,0-32,14.327-32,32c0,9.149,3.845,17.394,10,23.226   c-4.453-0.537-8.625-1.987-12.321-4.159c4.75,2.792,10.28,4.4,16.188,4.4c16.979,0,30.862-13.226,31.927-29.937   C423.97,121.38,424,120.694,424,120c0-4.926-1.115-9.591-3.104-13.759c-1.918-4.021-4.654-7.573-7.988-10.454   c0.371,0.321,0.735,0.65,1.092,0.988C412.731,96.621,411.443,96.533,410.133,96.533z" fill="#708aff"/><path d="M360.04,121.589c0.009,0.176,0.025,0.35,0.037,0.526c0.023,0.349,0.046,0.697,0.079,1.042   c0.021,0.208,0.049,0.414,0.073,0.622c0.036,0.309,0.072,0.618,0.117,0.924c0.032,0.221,0.072,0.439,0.109,0.658   c0.049,0.289,0.098,0.577,0.154,0.863c0.044,0.226,0.094,0.451,0.144,0.675c0.06,0.274,0.122,0.548,0.189,0.819   c0.057,0.229,0.118,0.457,0.18,0.685c0.071,0.261,0.144,0.522,0.221,0.78c0.069,0.231,0.141,0.461,0.215,0.689   c0.081,0.25,0.165,0.498,0.252,0.745c0.082,0.231,0.165,0.462,0.251,0.691c0.077,0.204,0.156,0.406,0.237,0.608   c0.014,0.034,0.028,0.067,0.042,0.101c0.094,0.232,0.189,0.464,0.289,0.694c0.097,0.224,0.2,0.446,0.302,0.668   c0.108,0.235,0.216,0.47,0.33,0.701c0.101,0.205,0.207,0.407,0.312,0.61c0.125,0.242,0.249,0.485,0.381,0.723   c0.097,0.176,0.2,0.349,0.3,0.523c0.149,0.258,0.295,0.518,0.451,0.771c0.068,0.11,0.14,0.217,0.209,0.326   c0.697,1.105,1.455,2.168,2.278,3.176c0.002,0.003,0.005,0.006,0.007,0.009c0.254,0.311,0.517,0.615,0.783,0.916   c0.056,0.064,0.111,0.13,0.168,0.194c0.254,0.284,0.515,0.56,0.779,0.834c0.073,0.075,0.143,0.153,0.217,0.227   c0.263,0.268,0.533,0.531,0.806,0.79c0.077,0.074,0.154,0.148,0.232,0.221c0.277,0.258,0.559,0.51,0.845,0.758   c0.077,0.067,0.154,0.135,0.232,0.201c0.293,0.25,0.592,0.494,0.894,0.734c0.072,0.057,0.145,0.114,0.217,0.17   c0.314,0.244,0.632,0.483,0.956,0.716c0.06,0.043,0.121,0.086,0.182,0.129c0.339,0.241,0.683,0.476,1.032,0.704   c0.041,0.027,0.082,0.052,0.123,0.079c0.372,0.24,0.749,0.475,1.132,0.7c0.005,0.003,0.011,0.006,0.016,0.009   c3.697,2.171,7.868,3.622,12.321,4.159c-6.155-5.832-10-14.077-10-23.226c0-17.673,14.327-32,32-32c1.31,0,2.598,0.088,3.866,0.241   c-0.356-0.338-0.72-0.667-1.092-0.988c-0.005-0.004-0.009-0.008-0.014-0.012c-0.365-0.316-0.738-0.623-1.118-0.922   c-0.013-0.01-0.027-0.021-0.04-0.032c-0.371-0.291-0.749-0.574-1.132-0.849c-0.025-0.018-0.051-0.036-0.077-0.055   c-0.373-0.266-0.752-0.524-1.137-0.774c-0.04-0.026-0.079-0.051-0.119-0.076c-0.373-0.24-0.751-0.473-1.135-0.697   c-0.056-0.033-0.114-0.065-0.17-0.098c-0.37-0.214-0.744-0.421-1.123-0.62c-0.076-0.04-0.153-0.078-0.229-0.117   c-0.364-0.187-0.73-0.369-1.102-0.542c-0.098-0.046-0.198-0.089-0.297-0.134c-0.355-0.161-0.712-0.319-1.073-0.467   c-0.121-0.05-0.244-0.096-0.365-0.144c-0.344-0.137-0.69-0.27-1.04-0.395c-0.146-0.052-0.294-0.099-0.441-0.149   c-0.332-0.113-0.664-0.224-1-0.326c-0.172-0.052-0.346-0.098-0.519-0.147c-0.317-0.09-0.634-0.181-0.955-0.262   c-0.202-0.051-0.406-0.094-0.61-0.141c-0.298-0.069-0.596-0.14-0.897-0.2c-0.233-0.047-0.469-0.084-0.703-0.126   c-0.278-0.049-0.554-0.102-0.835-0.144c-0.271-0.041-0.544-0.07-0.817-0.104c-0.249-0.031-0.497-0.067-0.748-0.092   c-0.33-0.033-0.664-0.053-0.997-0.076c-0.198-0.014-0.396-0.034-0.595-0.044C393.081,88.014,392.542,88,392,88   c-16.088,0-29.399,11.874-31.658,27.335C360.12,116.858,360,118.415,360,120C360,120.533,360.014,121.062,360.04,121.589z" fill="#3d6edd"/><path d="M89.205,219.702C93.458,214.27,96,207.434,96,200c0-9.149-3.845-17.394-10-23.226   c-1.268-0.153-2.557-0.241-3.866-0.241c-17.673,0-32,14.327-32,32c0,9.148,3.845,17.394,10,23.226   c-4.452-0.536-8.622-1.986-12.318-4.157C52.565,230.393,58.094,232,64,232c4.223,0,8.251-0.826,11.942-2.312   C81.2,227.57,85.764,224.099,89.205,219.702z" fill="#ff7400"/><path d="M50.133,208.533c0-17.673,14.327-32,32-32c1.31,0,2.598,0.088,3.866,0.241l0,0l0,0   c-0.355-0.337-0.719-0.666-1.09-0.986c-0.005-0.005-0.011-0.01-0.017-0.015c-0.364-0.314-0.736-0.621-1.115-0.919   c-0.015-0.011-0.03-0.023-0.044-0.035c-0.37-0.29-0.746-0.573-1.129-0.847c-0.027-0.019-0.053-0.038-0.08-0.057   c-0.372-0.265-0.75-0.522-1.134-0.772c-0.041-0.027-0.082-0.052-0.123-0.079c-0.372-0.239-0.749-0.471-1.131-0.695   c-0.058-0.034-0.117-0.067-0.176-0.101c-0.368-0.213-0.741-0.419-1.118-0.617c-0.077-0.041-0.156-0.08-0.233-0.12   c-0.363-0.187-0.729-0.369-1.1-0.542c-0.098-0.046-0.197-0.088-0.294-0.133c-0.355-0.161-0.712-0.318-1.073-0.467   c-0.123-0.05-0.247-0.097-0.37-0.146c-0.343-0.136-0.688-0.269-1.037-0.394c-0.146-0.052-0.295-0.1-0.443-0.15   c-0.331-0.113-0.662-0.224-0.998-0.326c-0.174-0.053-0.35-0.099-0.525-0.149c-0.316-0.09-0.631-0.18-0.951-0.26   c-0.202-0.051-0.407-0.094-0.61-0.141c-0.298-0.069-0.596-0.14-0.897-0.2c-0.233-0.047-0.469-0.084-0.703-0.126   c-0.278-0.049-0.555-0.102-0.835-0.144c-0.271-0.041-0.544-0.07-0.817-0.104c-0.25-0.031-0.497-0.067-0.748-0.092   c-0.33-0.033-0.664-0.053-0.997-0.076c-0.199-0.014-0.396-0.034-0.595-0.044C65.081,168.014,64.542,168,64,168   c-4.191,0-8.189,0.814-11.857,2.279c-5.044,2.014-9.459,5.267-12.857,9.393C34.734,185.199,32,192.28,32,200   c0,0.533,0.014,1.062,0.04,1.589c0.009,0.176,0.026,0.35,0.037,0.526c0.023,0.349,0.045,0.697,0.079,1.042   c0.02,0.208,0.049,0.414,0.073,0.622c0.037,0.309,0.072,0.618,0.118,0.924c0.032,0.221,0.072,0.439,0.109,0.659   c0.049,0.288,0.098,0.577,0.154,0.863c0.045,0.226,0.095,0.451,0.144,0.675c0.06,0.274,0.122,0.548,0.189,0.819   c0.057,0.23,0.118,0.457,0.18,0.685c0.071,0.261,0.144,0.522,0.222,0.78c0.069,0.231,0.141,0.461,0.215,0.689   c0.081,0.25,0.165,0.498,0.252,0.745c0.082,0.232,0.165,0.462,0.251,0.692c0.09,0.238,0.184,0.473,0.279,0.708   c0.094,0.232,0.189,0.464,0.289,0.694c0.097,0.224,0.2,0.446,0.302,0.668c0.108,0.234,0.216,0.469,0.329,0.701   c0.101,0.205,0.208,0.407,0.313,0.61c0.125,0.242,0.249,0.485,0.38,0.723c0.097,0.177,0.201,0.349,0.301,0.524   c0.148,0.258,0.295,0.516,0.45,0.769c0.069,0.112,0.143,0.221,0.213,0.332c0.694,1.1,1.448,2.157,2.267,3.161   c0.005,0.006,0.01,0.013,0.015,0.019c0.254,0.311,0.516,0.614,0.781,0.915c0.057,0.064,0.111,0.13,0.168,0.194   c0.254,0.283,0.515,0.56,0.779,0.834c0.073,0.075,0.144,0.152,0.217,0.227c0.263,0.268,0.533,0.531,0.806,0.79   c0.077,0.074,0.154,0.148,0.232,0.221c0.277,0.258,0.559,0.51,0.845,0.758c0.077,0.067,0.154,0.135,0.232,0.201   c0.293,0.25,0.592,0.494,0.894,0.734c0.072,0.057,0.145,0.114,0.217,0.171c0.313,0.244,0.631,0.482,0.954,0.714   c0.062,0.044,0.123,0.088,0.185,0.132c0.339,0.24,0.682,0.475,1.03,0.702c0.041,0.027,0.082,0.053,0.123,0.079   c0.372,0.24,0.748,0.474,1.131,0.699c0.007,0.004,0.014,0.008,0.021,0.012c3.696,2.17,7.866,3.62,12.318,4.157   C53.979,225.927,50.133,217.682,50.133,208.533z" fill="#d55a00"/></g><g transform="matrix(-0.1171875 0 0 0.1171875 354 144)" id="L1_1"><circle cx="256" cy="256" r="112" fill="#ffcf00"/><path d="M256,72c4.422,0,8-3.582,8-8V8c0-4.418-3.578-8-8-8s-8,3.582-8,8v56C248,68.418,251.578,72,256,72z" fill="#ffcf00"/><path d="M256,120c4.422,0,8-3.582,8-8V96c0-4.418-3.578-8-8-8s-8,3.582-8,8v16   C248,116.418,251.578,120,256,120z" fill="#ffcf00"/><path d="M256,440c-4.422,0-8,3.578-8,8v56c0,4.422,3.578,8,8,8s8-3.578,8-8v-56   C264,443.578,260.422,440,256,440z" fill="#ffcf00"/><path d="M256,392c-4.422,0-8,3.578-8,8v16c0,4.422,3.578,8,8,8s8-3.578,8-8v-16   C264,395.578,260.422,392,256,392z" fill="#ffcf00"/><path d="M504,248h-56c-4.422,0-8,3.578-8,8s3.578,8,8,8h56c4.422,0,8-3.578,8-8S508.422,248,504,248z" fill="#ffcf00"/><path d="M400,248c-4.422,0-8,3.578-8,8s3.578,8,8,8h16c4.422,0,8-3.578,8-8s-3.578-8-8-8H400z" fill="#ffcf00"/><path d="M72,256c0-4.422-3.578-8-8-8H8c-4.422,0-8,3.578-8,8s3.578,8,8,8h56C68.422,264,72,260.422,72,256z" fill="#ffcf00"/><path d="M112,248H96c-4.422,0-8,3.578-8,8s3.578,8,8,8h16c4.422,0,8-3.578,8-8S116.422,248,112,248z" fill="#ffcf00"/><path d="M148.523,352.164l-66.18,66.18c-3.125,3.125-3.125,8.188,0,11.313C83.906,431.219,85.953,432,88,432   s4.094-0.781,5.656-2.344l66.18-66.18c3.125-3.125,3.125-8.188,0-11.313S151.648,349.039,148.523,352.164z" fill="#ff9300"/><path d="M357.82,162.176c2.047,0,4.094-0.781,5.656-2.344l66.18-66.176c3.125-3.125,3.125-8.188,0-11.313   s-8.187-3.125-11.312,0l-66.18,66.176c-3.125,3.125-3.125,8.188,0,11.313C353.726,161.395,355.773,162.176,357.82,162.176z" fill="#ff9300"/><path d="M193.5,126.023c1.273,3.078,4.258,4.941,7.391,4.941c1.023,0,2.063-0.199,3.063-0.613   c4.078-1.691,6.016-6.371,4.328-10.453L183.789,60.77c-1.688-4.082-6.383-6-10.453-4.328c-4.078,1.691-6.016,6.371-4.328,10.453   L193.5,126.023z" fill="#ff7400"/><path d="M318.5,385.976c-1.695-4.078-6.383-6-10.453-4.328c-4.078,1.688-6.016,6.367-4.328,10.453   l24.492,59.125c1.273,3.078,4.258,4.938,7.391,4.938c1.023,0,2.063-0.195,3.063-0.609c4.078-1.688,6.016-6.367,4.328-10.453   L318.5,385.976z" fill="#ff7400"/><path d="M363.476,352.164c-3.125-3.125-8.188-3.125-11.313,0s-3.125,8.188,0,11.313l66.18,66.18   c1.563,1.563,3.609,2.344,5.656,2.344c2.047,0,4.094-0.781,5.656-2.344c3.125-3.125,3.125-8.188,0-11.313L363.476,352.164z" fill="#ff9300"/><path d="M148.523,159.832c1.563,1.563,3.609,2.344,5.656,2.344s4.094-0.781,5.656-2.344   c3.125-3.125,3.125-8.188,0-11.313l-66.18-66.176c-3.125-3.125-8.188-3.125-11.313,0s-3.125,8.188,0,11.313L148.523,159.832z" fill="#ff9300"/><path d="M308.047,130.352c1,0.414,2.039,0.613,3.063,0.613c3.133,0,6.117-1.863,7.391-4.941l24.492-59.129   c1.688-4.082-0.25-8.762-4.328-10.453c-4.055-1.676-8.766,0.242-10.453,4.328l-24.492,59.129   C302.031,123.98,303.969,128.66,308.047,130.352z" fill="#ff7400"/><path d="M203.953,381.648c-4.055-1.68-8.766,0.242-10.453,4.328l-24.492,59.125   c-1.688,4.086,0.25,8.766,4.328,10.453c1,0.414,2.039,0.609,3.063,0.609c3.133,0,6.117-1.859,7.391-4.938l24.492-59.125   C209.969,388.015,208.031,383.336,203.953,381.648z" fill="#ff7400"/><path d="M130.352,308.047c-1.688-4.086-6.391-6.016-10.453-4.328l-59.125,24.492   c-4.078,1.688-6.016,6.367-4.328,10.453c1.273,3.078,4.258,4.938,7.391,4.938c1.023,0,2.063-0.195,3.063-0.609l59.125-24.492   C130.102,316.812,132.039,312.133,130.352,308.047z" fill="#ff7400"/><path d="M381.648,203.953c1.273,3.078,4.258,4.938,7.391,4.938c1.023,0,2.063-0.195,3.063-0.609   l59.125-24.492c4.078-1.688,6.016-6.367,4.328-10.453c-1.688-4.078-6.391-6-10.453-4.328L385.976,193.5   C381.898,195.187,379.961,199.867,381.648,203.953z" fill="#ff7400"/><path d="M60.773,183.789l59.125,24.492c1,0.414,2.039,0.609,3.063,0.609c3.133,0,6.117-1.859,7.391-4.938   c1.688-4.086-0.25-8.766-4.328-10.453l-59.125-24.492c-4.063-1.676-8.766,0.25-10.453,4.328   C54.758,177.422,56.695,182.102,60.773,183.789z" fill="#ff7400"/><path d="M451.226,328.211l-59.125-24.492c-4.063-1.688-8.766,0.242-10.453,4.328s0.25,8.766,4.328,10.453   l59.125,24.492c1,0.414,2.039,0.609,3.063,0.609c3.133,0,6.117-1.859,7.391-4.938C457.242,334.578,455.304,329.898,451.226,328.211   z" fill="#ff7400"/></g><g transform="matrix(0.125 0 0 0.125 70 172)" id="L1_2"><path d="M279.759,476.703c-3.803,0.636-7.637,1.178-11.499,1.633   C272.122,477.882,275.956,477.337,279.759,476.703z" fill="#ffffff"/><path d="M240,325.714c-32.794,0-64.094-2.195-92.75-6.175c2.01,12.121,4.925,23.936,8.68,35.37   c-58.301-7.231-106.556-21.722-135.394-40.346c-0.046-0.03-0.09-0.059-0.135-0.089c-0.918-0.594-1.813-1.194-2.691-1.797   c-0.122-0.084-0.245-0.167-0.366-0.25c-0.911-0.631-1.802-1.265-2.669-1.905c-0.084-0.062-0.165-0.125-0.249-0.187   c-0.751-0.557-1.481-1.119-2.198-1.682c-0.194-0.153-0.388-0.306-0.58-0.459c-0.784-0.627-1.554-1.256-2.296-1.891c0,0,0,0,0,0   c7.501,26.137,19.31,50.433,34.63,72.091c11.966,5.287,25.682,10.079,40.849,14.272c5.292,1.463,10.751,2.856,16.386,4.167   c3.113,0.724,6.276,1.425,9.488,2.1c0,0-0.015-0.03-0.042-0.088c-0.055-0.116-0.163-0.344-0.312-0.67   c-0.522-1.139-1.551-3.47-2.614-6.346c-0.304-0.822-0.61-1.688-0.908-2.584c-0.298-0.896-0.588-1.821-0.858-2.761   c-0.244-0.847-0.469-1.706-0.673-2.565c-0.589-2.478-0.983-4.962-0.982-7.189c0-0.428,0.015-0.847,0.046-1.254   c0.056-0.741,0.172-1.438,0.341-2.091c0.158-0.612,0.378-1.175,0.65-1.692c0.127-0.242,0.267-0.473,0.421-0.69   c1.1-1.553,2.891-2.488,5.655-2.434c0.565,0.011,1.131,0.032,1.7,0.063c0.158,0.008,0.317,0.023,0.475,0.033   c0.411,0.026,0.822,0.051,1.235,0.086c0.218,0.019,0.438,0.045,0.656,0.066c0.354,0.034,0.706,0.067,1.061,0.108   c0.254,0.03,0.509,0.066,0.763,0.099c0.323,0.042,0.646,0.081,0.971,0.128c0.265,0.038,0.532,0.084,0.798,0.126   c0.315,0.05,0.629,0.097,0.946,0.152c0.275,0.048,0.552,0.102,0.828,0.153c0.31,0.057,0.619,0.113,0.93,0.175   c0.283,0.056,0.567,0.119,0.851,0.179c0.305,0.064,0.609,0.127,0.915,0.195c0.291,0.065,0.583,0.136,0.875,0.205   c0.302,0.071,0.603,0.141,0.906,0.216c0.297,0.074,0.596,0.153,0.894,0.231c0.298,0.077,0.595,0.153,0.893,0.234   c0.301,0.082,0.604,0.168,0.906,0.253c0.3,0.084,0.599,0.167,0.899,0.255c0.299,0.087,0.598,0.179,0.897,0.269   c0.306,0.092,0.611,0.183,0.918,0.279c0.299,0.093,0.598,0.19,0.897,0.287c0.309,0.099,0.618,0.198,0.928,0.3   c0.3,0.099,0.6,0.202,0.901,0.304c0.312,0.106,0.624,0.211,0.936,0.32c0.297,0.103,0.595,0.21,0.893,0.317   c0.32,0.114,0.639,0.227,0.959,0.344c0.293,0.107,0.586,0.217,0.88,0.326c0.327,0.122,0.653,0.243,0.981,0.368   c0.289,0.11,0.578,0.222,0.867,0.334c0.336,0.13,0.671,0.26,1.008,0.393c0.282,0.111,0.565,0.225,0.848,0.338   c0.345,0.138,0.69,0.277,1.036,0.418c0.276,0.112,0.552,0.227,0.828,0.341c0.358,0.148,0.716,0.296,1.074,0.447   c0.263,0.11,0.527,0.223,0.79,0.334c0.374,0.159,0.749,0.318,1.124,0.48c0.25,0.108,0.501,0.217,0.752,0.326   c0.391,0.17,0.783,0.341,1.175,0.514c0.236,0.104,0.473,0.209,0.71,0.315c0.408,0.182,0.818,0.364,1.228,0.549   c0.223,0.1,0.446,0.201,0.67,0.303c0.43,0.195,0.862,0.391,1.294,0.589c0.195,0.089,0.39,0.179,0.584,0.269   c0.47,0.216,0.941,0.434,1.413,0.654c0.155,0.072,0.309,0.144,0.464,0.217c0.512,0.239,1.026,0.48,1.54,0.722   c0.119,0.056,0.239,0.112,0.358,0.169c0.557,0.263,1.114,0.528,1.673,0.794c0.071,0.034,0.142,0.068,0.212,0.101   c4.173,1.991,8.405,4.067,12.69,6.152c-5.662-11.023-10.579-22.491-14.502-34.423C182.21,358.228,210.505,360,240,360   c26.929,0,52.859-1.477,77.145-4.208l31.322-4.361c55.284-9.26,99.103-25.38,122.187-45.147   c-7.497,26.132-19.3,50.424-34.614,72.081c-45.489,20.111-116.356,34.271-196.04,33.064c-24.076-0.365-47.591-11.348-69.693-22.104   c10.481,20.436,23.805,39.172,39.454,55.686c0.042,0.002,0.083,0.004,0.124,0.006c0.023,0.025,0.048,0.048,0.071,0.073   c9.848,0.411,19.873,0.625,30.044,0.625c55.516,0,106.705-6.311,148.079-16.917c-27.933,21.94-60.836,37.837-96.751,45.683   C399.21,450.972,480,354.929,480,240c0,8.019-0.411,15.942-1.18,23.759C448.937,299.535,353.366,325.714,240,325.714z" fill="#ffffff"/><path d="M444.853,115.016c1.641,2.693,3.249,5.408,4.79,8.167C405.504,147.032,328.129,162.857,240,162.857   c-22.083,0-43.49-0.994-63.869-2.859c-10.299,17.797-18.377,37.036-23.856,57.346c0.018,0.002,0.035,0.005,0.053,0.007   c-0.001,0.004-0.002,0.008-0.003,0.012c8.346,1.086,16.897,2.028,25.646,2.803l-0.002-0.007   c45.638,3.093,75.471,22.415,103.657,27.463c7.535,1.35,13.04-6.918,8.744-13.254l-8.622-12.716   c85.209-4.969,155.603-24.903,187.844-51.677c4.106,13.479,7.06,27.458,8.751,41.824c-4.413-37.698-17.558-72.721-37.365-103.001   c1.339,2.047,2.649,4.115,3.927,6.206C444.887,115.009,444.87,115.012,444.853,115.016z M252,224c-6.627,0-12-3.582-12-8   s5.373-8,12-8s12,3.582,12,8S258.627,224,252,224z" fill="#ffffff"/><path d="M211.755,478.337c-3.871-0.455-7.715-0.999-11.527-1.636   C204.041,477.337,207.884,477.883,211.755,478.337z" fill="#ff9300"/><path d="M109.326,441.248c-3.761-2.449-7.449-5-11.061-7.649c-0.397-0.291-0.792-0.583-1.188-0.876   c-1.733-1.288-3.455-2.589-5.151-3.922c-0.002-0.001-0.004-0.003-0.006-0.004l0,0l0,0c0.001,0,0.003,0.001,0.004,0.001   c1.931,0.495,3.89,0.978,5.863,1.453c0.303,0.073,0.605,0.147,0.91,0.219c2.039,0.487,4.096,0.965,6.178,1.43   c0.007,0.002,0.013,0.003,0.02,0.004c30.904,6.91,66.55,11.491,104.865,13.105c-15.649-16.514-28.973-35.25-39.454-55.686   c-4.232-2.06-8.412-4.111-12.534-6.077c-0.071-0.034-0.142-0.068-0.212-0.101c-0.559-0.266-1.116-0.531-1.673-0.794   c-0.119-0.056-0.239-0.113-0.358-0.169c-0.514-0.243-1.028-0.483-1.54-0.722c-0.155-0.072-0.31-0.145-0.464-0.217   c-0.472-0.22-0.943-0.437-1.413-0.654c-0.195-0.09-0.39-0.18-0.584-0.269c-0.432-0.198-0.863-0.394-1.294-0.589   c-0.223-0.101-0.447-0.202-0.67-0.303c-0.41-0.185-0.819-0.367-1.228-0.549c-0.237-0.105-0.474-0.211-0.71-0.315   c-0.393-0.173-0.784-0.344-1.175-0.514c-0.251-0.109-0.502-0.219-0.752-0.326c-0.375-0.162-0.75-0.321-1.124-0.48   c-0.264-0.112-0.527-0.224-0.79-0.334c-0.359-0.151-0.717-0.299-1.074-0.447c-0.276-0.114-0.553-0.229-0.828-0.341   c-0.346-0.141-0.691-0.28-1.036-0.418c-0.283-0.113-0.566-0.227-0.848-0.338c-0.337-0.133-0.672-0.263-1.008-0.393   c-0.289-0.112-0.578-0.224-0.867-0.334c-0.328-0.125-0.654-0.246-0.981-0.368c-0.293-0.109-0.587-0.219-0.88-0.326   c-0.32-0.117-0.64-0.23-0.959-0.344c-0.298-0.106-0.596-0.213-0.893-0.317c-0.313-0.109-0.624-0.214-0.936-0.32   c-0.3-0.102-0.601-0.205-0.901-0.304c-0.31-0.103-0.619-0.201-0.928-0.3c-0.299-0.096-0.599-0.193-0.897-0.287   c-0.306-0.096-0.612-0.187-0.918-0.279c-0.299-0.09-0.599-0.182-0.897-0.269c-0.301-0.088-0.6-0.171-0.899-0.255   c-0.302-0.085-0.605-0.172-0.906-0.253c-0.299-0.081-0.596-0.156-0.893-0.234c-0.298-0.077-0.597-0.157-0.894-0.231   c-0.303-0.075-0.604-0.144-0.906-0.216c-0.292-0.069-0.584-0.14-0.875-0.205c-0.306-0.069-0.61-0.131-0.915-0.195   c-0.284-0.06-0.568-0.123-0.851-0.179c-0.311-0.062-0.62-0.117-0.93-0.175c-0.276-0.051-0.553-0.106-0.828-0.153   c-0.316-0.055-0.631-0.102-0.946-0.152c-0.266-0.042-0.533-0.088-0.798-0.126c-0.325-0.047-0.647-0.086-0.971-0.128   c-0.254-0.033-0.51-0.07-0.763-0.099c-0.355-0.041-0.708-0.073-1.061-0.108c-0.219-0.021-0.438-0.047-0.656-0.066   c-0.413-0.035-0.824-0.061-1.235-0.086c-0.158-0.01-0.317-0.024-0.475-0.033c-0.569-0.03-1.136-0.052-1.7-0.063   c-2.764-0.054-4.555,0.881-5.655,2.434c-0.154,0.218-0.293,0.449-0.421,0.69c-0.272,0.517-0.491,1.079-0.65,1.692   c-0.169,0.654-0.285,1.35-0.341,2.091c-0.031,0.407-0.045,0.826-0.046,1.254c-0.001,2.226,0.393,4.71,0.982,7.189   c0.204,0.859,0.429,1.718,0.673,2.565c0.271,0.94,0.56,1.865,0.858,2.761c0.298,0.896,0.604,1.762,0.908,2.584   c1.063,2.876,2.092,5.207,2.614,6.346c0.149,0.325,0.257,0.554,0.312,0.67c0.028,0.058,0.042,0.088,0.042,0.088   c-3.212-0.676-6.375-1.376-9.488-2.1c-5.635-1.311-11.095-2.704-16.386-4.167c-15.167-4.193-28.883-8.985-40.849-14.271   c-15.321-21.659-27.129-45.955-34.63-72.092l0,0c0,0,0,0,0-0.001c0.742,0.635,1.512,1.264,2.296,1.891   c0.192,0.153,0.386,0.306,0.58,0.459c0.717,0.564,1.447,1.125,2.198,1.682c0.084,0.062,0.165,0.125,0.249,0.187   c0.867,0.64,1.758,1.274,2.669,1.905c0.121,0.084,0.244,0.167,0.366,0.25c0.878,0.603,1.773,1.202,2.691,1.797   c0.045,0.029,0.09,0.059,0.135,0.089c28.838,18.624,77.093,33.115,135.394,40.346c-3.755-11.434-6.67-23.249-8.68-35.37   c-61.528-8.545-110.844-25.337-136.478-46.406c-0.091-0.075-0.179-0.15-0.27-0.224c-0.771-0.639-1.52-1.281-2.247-1.927   c-0.118-0.104-0.238-0.208-0.355-0.313c-0.781-0.703-1.54-1.41-2.269-2.122c-0.106-0.103-0.205-0.207-0.31-0.311   c-0.604-0.597-1.188-1.198-1.755-1.801c-0.174-0.185-0.348-0.371-0.519-0.557c-0.644-0.702-1.271-1.406-1.864-2.115   c-0.001-0.001-0.002-0.002-0.003-0.004v0c0,0,0,0,0,0C0.411,255.942,0,248.019,0,240c0,114.932,80.795,210.977,188.681,234.482   c-28.529-6.231-55.151-17.551-78.897-32.937C109.631,441.446,109.478,441.347,109.326,441.248z M152,392   c9.667,5.667,16.5,12.5,16,24c-0.5,11.5-46.5-12-48-24C118.5,380,139.792,384.843,152,392z" fill="#ff9300"/><path d="M444.853,115.016c0.017-0.003,0.035-0.007,0.052-0.01c-1.278-2.09-2.588-4.158-3.927-6.206   c-0.11-0.169-0.222-0.337-0.333-0.505c-1.107-1.684-2.239-3.351-3.387-5.004C439.906,107.115,442.426,111.033,444.853,115.016z" fill="#ff9300"/><path d="M347.327,25.343c0.112,0.056,0.224,0.111,0.336,0.167c0.802,0.404,1.6,0.813,2.396,1.225   c0.581,0.3,1.161,0.601,1.739,0.905c0.408,0.215,0.815,0.432,1.221,0.65c0.972,0.519,1.939,1.044,2.903,1.576   c0.11,0.061,0.22,0.122,0.33,0.183c0.552,0.306,1.108,0.607,1.657,0.918c0.195,0.11,0.399,0.205,0.594,0.316   c4.899,2.788,9.686,5.749,14.362,8.864c0.063,0.042,0.123,0.089,0.186,0.131c-6.821,0.306-13.564,0.908-20.225,1.773   c-4.947,0.873-9.987,1.69-15.118,2.45c-55.544,10.855-104.212,40.877-138.881,82.884c0.01,0,0.021,0.001,0.031,0.002   c-0.002,0.003-0.004,0.005-0.007,0.008c13.385,0.77,27.128,1.176,41.148,1.176c17.369,0,34.322-0.614,50.686-1.783   c3.126-0.223,6.23-0.467,9.312-0.73l29.238-3.176c40.795-5.412,76.311-14.455,103.459-25.942c-0.901-1.212-1.811-2.418-2.734-3.613   c-0.032-0.041-0.063-0.083-0.095-0.124c-0.736-0.95-1.479-1.894-2.228-2.832c-0.108-0.135-0.217-0.269-0.324-0.403   c-1.405-1.751-2.833-3.483-4.285-5.193c-0.126-0.149-0.251-0.298-0.378-0.447c-0.761-0.892-1.528-1.779-2.302-2.659   c-0.105-0.12-0.212-0.238-0.317-0.357c-1.442-1.635-2.906-3.248-4.391-4.843c-0.208-0.223-0.415-0.448-0.624-0.67   c-0.778-0.83-1.561-1.655-2.351-2.473c-0.098-0.102-0.198-0.202-0.296-0.303c-1.491-1.539-3.004-3.057-4.535-4.556   c-0.286-0.28-0.572-0.561-0.86-0.84c-0.785-0.76-1.573-1.518-2.368-2.267c-0.097-0.092-0.196-0.181-0.293-0.272   c-1.539-1.446-3.098-2.87-4.674-4.276c-0.369-0.329-0.738-0.657-1.109-0.984c-0.781-0.688-1.564-1.375-2.355-2.052   c-0.04-0.034-0.08-0.068-0.12-0.102c-1.642-1.407-3.306-2.789-4.985-4.151c-0.458-0.371-0.917-0.741-1.377-1.109   c-1.18-0.943-2.371-1.874-3.569-2.795c-0.577-0.444-1.152-0.89-1.733-1.328c-0.748-0.564-1.502-1.12-2.257-1.676   c-0.55-0.405-1.102-0.807-1.656-1.207c-0.974-0.705-1.953-1.402-2.938-2.093c-0.834-0.584-1.67-1.167-2.512-1.741   c-0.719-0.491-1.444-0.974-2.169-1.457c-0.657-0.438-1.317-0.871-1.979-1.302c-0.925-0.603-1.854-1.201-2.787-1.792   c-0.916-0.58-1.835-1.156-2.76-1.723c-0.69-0.424-1.385-0.842-2.08-1.259c-0.782-0.469-1.568-0.932-2.356-1.393   c-0.867-0.507-1.736-1.009-2.61-1.505c-0.987-0.56-1.977-1.115-2.972-1.662c-0.66-0.362-1.322-0.72-1.986-1.077   c-0.933-0.501-1.871-0.994-2.811-1.483c-0.783-0.407-1.569-0.811-2.357-1.21c-1.054-0.533-2.111-1.059-3.174-1.577   c-0.625-0.304-1.251-0.606-1.879-0.906c-1.131-0.539-2.268-1.07-3.409-1.592c-0.657-0.3-1.316-0.597-1.975-0.891   c-1.115-0.498-2.235-0.988-3.359-1.47c-0.588-0.252-1.177-0.502-1.767-0.75c-1.43-0.599-2.865-1.189-4.309-1.76   c-0.42-0.167-0.845-0.326-1.267-0.49c-1.183-0.46-2.37-0.912-3.561-1.354c-0.548-0.203-1.095-0.406-1.645-0.606   c-1.496-0.542-2.998-1.074-4.507-1.588c-0.421-0.143-0.846-0.28-1.268-0.421c-1.247-0.416-2.498-0.823-3.754-1.219   c-0.503-0.159-1.005-0.318-1.509-0.474c-1.56-0.481-3.125-0.948-4.698-1.397c-0.419-0.12-0.841-0.234-1.261-0.351   c-1.316-0.368-2.636-0.726-3.962-1.072c-0.453-0.119-0.906-0.24-1.36-0.355c-1.618-0.413-3.242-0.81-4.872-1.189   c-0.42-0.098-0.842-0.191-1.263-0.286c-1.389-0.315-2.782-0.619-4.18-0.91c-0.398-0.083-0.795-0.169-1.194-0.25   c-1.67-0.339-3.346-0.659-5.028-0.963c-0.425-0.077-0.852-0.149-1.278-0.224c-1.467-0.257-2.938-0.501-4.415-0.731   c-0.333-0.052-0.666-0.108-1-0.158c-1.718-0.261-3.443-0.5-5.173-0.724C298.188,5.517,323.851,13.568,347.327,25.343z" fill="#ff9300"/><path d="M373.052,40.278c-0.063-0.042-0.123-0.089-0.186-0.131c-4.676-3.115-9.463-6.076-14.362-8.864   c-0.195-0.111-0.399-0.206-0.594-0.316c-0.55-0.311-1.105-0.612-1.657-0.918c4.859,2.698,9.615,5.559,14.26,8.576   c-5.74,1.224-11.651,2.361-17.686,3.426C359.487,41.186,366.231,40.584,373.052,40.278z" fill="#ff7400"/><path d="M52.578,99.137c0.932,0.369,1.87,0.736,2.82,1.099c0.525,0.201,1.055,0.4,1.585,0.599   c0.892,0.335,1.793,0.667,2.7,0.996c0.55,0.2,1.098,0.4,1.653,0.598c0.968,0.345,1.948,0.686,2.932,1.025   c0.493,0.17,0.979,0.342,1.476,0.51c1.41,0.478,2.837,0.951,4.28,1.417c0.616,0.199,1.244,0.394,1.865,0.591   c0.879,0.279,1.759,0.557,2.65,0.832c0.766,0.236,1.54,0.468,2.314,0.701c0.753,0.226,1.51,0.451,2.271,0.675   c0.845,0.248,1.693,0.494,2.547,0.738c0.68,0.194,1.366,0.385,2.053,0.577c0.931,0.26,1.861,0.52,2.803,0.775   c0.477,0.129,0.962,0.255,1.442,0.384c3.741,0.999,7.565,1.963,11.472,2.888c0.344,0.082,0.686,0.164,1.032,0.245   c1.282,0.3,2.573,0.596,3.872,0.889c0.308,0.069,0.616,0.138,0.925,0.207c1.394,0.311,2.795,0.618,4.208,0.919   c0.016,0.003,0.031,0.007,0.047,0.01c26.81,5.712,57.003,9.716,89.304,11.574c34.669-42.007,83.337-72.029,138.881-82.884   c-29.992,4.443-62.991,6.927-97.709,6.927c-47.862,0-92.492-4.7-130.421-12.783c15.905-10.33,33.104-18.833,51.298-25.214   c-2.163,0.751-4.318,1.521-6.45,2.336c-1.229,0.469-2.448,0.957-3.667,1.445c-3.126,1.254-6.22,2.573-9.279,3.954   c-1.046,0.472-2.099,0.932-3.137,1.418c-3.832,1.796-7.618,3.673-11.336,5.663c-0.173,0.092-0.352,0.175-0.524,0.268   c-4.12,2.218-8.167,4.557-12.138,7.004c-0.315,0.194-0.621,0.403-0.935,0.599c-3.502,2.181-6.941,4.454-10.32,6.807   c-0.724,0.504-1.438,1.021-2.156,1.533c-3.066,2.186-6.08,4.439-9.037,6.763c-0.625,0.491-1.254,0.976-1.874,1.472   c-10.738,8.614-20.725,18.123-29.835,28.428c-0.348,0.394-0.687,0.795-1.033,1.192c-2.685,3.077-5.292,6.224-7.819,9.437   c-0.375,0.477-0.752,0.951-1.124,1.43c-0.976,1.26-1.928,2.541-2.883,3.818c1.295,0.547,2.613,1.088,3.946,1.624   C51.706,98.795,52.144,98.965,52.578,99.137z" fill="#ff7400"/><path d="M181.505,7.213c-0.359,0.09-0.727,0.159-1.086,0.25c-4.439,1.135-8.822,2.412-13.159,3.791   c-1.019,0.324-2.019,0.689-3.032,1.026c-0.1,0.033-0.198,0.069-0.297,0.102c6.093-2.044,12.294-3.853,18.594-5.41   C182.187,7.055,181.844,7.128,181.505,7.213z" fill="#ff7400"/><path d="M449.643,123.183c-1.541-2.759-3.149-5.474-4.79-8.167c-2.427-3.982-4.947-7.901-7.595-11.726   c-0.006-0.009-0.012-0.018-0.019-0.027c-1.406-2.029-2.847-4.031-4.315-6.013c-0.076-0.103-0.147-0.209-0.224-0.312   c-0.001,0.001-0.003,0.001-0.005,0.002c-27.148,11.487-62.664,20.53-103.459,25.942l-29.238,3.176   c-3.082,0.264-6.186,0.507-9.312,0.73c-16.364,1.169-33.317,1.783-50.686,1.783c-14.02,0-27.762-0.406-41.148-1.176   c-8.421,10.201-16.035,21.088-22.699,32.604c-0.222-0.02-0.441-0.043-0.663-0.063c0.215,0.02,0.426,0.042,0.641,0.062   c20.379,1.865,41.786,2.859,63.869,2.859C328.129,162.857,405.504,147.032,449.643,123.183z" fill="#ffedb9"/><path d="M37.808,110.774c0.377-0.59,0.751-1.182,1.134-1.769c2.653-4.079,5.404-8.089,8.301-11.987   c0.011-0.014,0.02-0.029,0.03-0.043c1.313,0.555,2.65,1.103,4.002,1.646c-1.333-0.536-2.651-1.076-3.946-1.624   c-0.019-0.008-0.038-0.015-0.057-0.023c-6.193,8.331-11.827,17.095-16.916,26.207c0.002-0.003,0.006-0.009,0.006-0.009   C32.718,118.958,35.218,114.833,37.808,110.774z" fill="#ffedb9"/><path d="M182.526,6.972c-6.301,1.557-12.501,3.365-18.594,5.41c-1.021,0.343-2.039,0.693-3.054,1.049   c-18.194,6.381-35.393,14.884-51.298,25.214C147.508,46.728,192.138,51.428,240,51.428c34.718,0,67.717-2.484,97.709-6.927   c5.13-0.76,10.171-1.578,15.118-2.45c6.035-1.065,11.946-2.201,17.686-3.426c-4.645-3.017-9.402-5.878-14.26-8.576   c-0.11-0.061-0.22-0.122-0.33-0.183c-0.963-0.533-1.932-1.056-2.903-1.576c-0.406-0.218-0.813-0.435-1.221-0.65   c-0.578-0.305-1.158-0.604-1.739-0.905c-0.796-0.412-1.594-0.822-2.396-1.225c-0.112-0.056-0.224-0.111-0.336-0.167   c-23.476-11.774-49.139-19.825-76.231-23.34c-0.002,0-0.003,0-0.005-0.001c-0.03-0.004-0.06-0.007-0.09-0.011   c-1.339-0.173-2.683-0.334-4.03-0.485c-0.262-0.029-0.525-0.056-0.787-0.085c-1.12-0.122-2.242-0.236-3.367-0.343   c-0.385-0.036-0.769-0.071-1.154-0.105c-1.007-0.09-2.016-0.174-3.026-0.252c-0.171-0.013-0.341-0.03-0.512-0.042   c-0.287-0.021-0.576-0.04-0.864-0.06c-0.949-0.068-1.9-0.128-2.852-0.184c-0.496-0.029-0.992-0.06-1.489-0.086   c-0.937-0.05-1.876-0.091-2.816-0.13c-0.499-0.021-0.998-0.044-1.498-0.062c-0.989-0.035-1.981-0.06-2.973-0.083   c-0.034-0.001-0.067-0.002-0.101-0.003c-0.411-0.01-0.821-0.023-1.232-0.031C242.869,0.014,241.436,0,240,0   c-1.21,0-2.417,0.016-3.623,0.033c-0.198,0.003-0.397,0.002-0.596,0.006c-0.415,0.007-0.828,0.02-1.242,0.029   c-1.005,0.022-2.01,0.049-3.012,0.083c-0.447,0.016-0.893,0.035-1.339,0.053c-1.036,0.042-2.07,0.088-3.102,0.144   c-0.356,0.019-0.713,0.039-1.069,0.059c-1.151,0.067-2.301,0.141-3.448,0.224c-0.193,0.014-0.386,0.026-0.578,0.04   C208.49,1.679,195.306,3.814,182.526,6.972z" fill="#d55a00"/><path d="M281.748,221.653l8.622,12.716c4.296,6.336-1.208,14.604-8.744,13.254   c-28.186-5.048-58.019-24.37-103.657-27.463l0.002,0.007c-8.749-0.775-17.3-1.718-25.646-2.803   c-4.863,18.025-7.721,36.873-8.234,56.311c0.021,0.003,0.042,0.006,0.063,0.009c0,0.008,0,0.016-0.001,0.024   c29.732,3.964,62.044,6.14,95.845,6.14c105.42,0,196.406-21.144,239.553-51.787C479.75,232.029,480,235.983,480,240   c0-1.846-0.028-3.686-0.07-5.522c-0.013-0.577-0.031-1.153-0.049-1.729c-0.039-1.298-0.088-2.593-0.148-3.885   c-0.029-0.623-0.054-1.247-0.088-1.868c-0.089-1.661-0.192-3.319-0.315-4.972c-0.058-0.77-0.127-1.536-0.192-2.303   c-0.084-0.997-0.169-1.994-0.265-2.987c-0.095-0.978-0.196-1.955-0.302-2.93c-0.073-0.669-0.151-1.336-0.229-2.003   c-1.691-14.366-4.645-28.346-8.751-41.824C437.351,196.75,366.957,216.684,281.748,221.653z" fill="#ff9300"/><path d="M0.606,223.781c0.087-1.299,0.188-2.593,0.296-3.886c0.438-5.25,0.986-10.468,1.757-15.616   c0.007-0.051,0.012-0.103,0.02-0.153c0.822-5.459,1.864-10.844,3.047-16.177c0.184-0.833,0.382-1.661,0.575-2.49   c1.218-5.225,2.561-10.404,4.111-15.493c26.222,21.782,77.701,39.023,141.864,47.378c5.479-20.31,13.557-39.549,23.856-57.346   c-0.215-0.02-0.426-0.042-0.641-0.062c-1.97-0.182-3.93-0.373-5.88-0.572c-0.847-0.086-1.689-0.176-2.532-0.265   c-1.443-0.153-2.881-0.309-4.313-0.471c-0.844-0.095-1.688-0.189-2.527-0.288c-1.764-0.206-3.517-0.419-5.263-0.639   c-0.619-0.078-1.239-0.155-1.856-0.234c-1.902-0.245-3.791-0.498-5.67-0.758c-0.798-0.111-1.591-0.225-2.385-0.338   c-1.399-0.2-2.791-0.403-4.177-0.612c-0.793-0.119-1.587-0.238-2.375-0.36c-1.722-0.266-3.433-0.539-5.134-0.819   c-0.541-0.089-1.083-0.177-1.622-0.267c-1.835-0.307-3.655-0.622-5.465-0.944c-0.743-0.132-1.48-0.268-2.219-0.402   c-1.353-0.247-2.699-0.497-4.037-0.752c-0.729-0.139-1.46-0.277-2.185-0.419c-1.694-0.331-3.376-0.667-5.046-1.011   c-0.419-0.086-0.839-0.172-1.256-0.259c-1.787-0.373-3.556-0.755-5.313-1.142c-0.67-0.148-1.334-0.299-2-0.449   c-1.311-0.295-2.612-0.595-3.906-0.899c-0.66-0.155-1.322-0.31-1.978-0.467c-1.655-0.397-3.297-0.8-4.922-1.21   c-0.302-0.076-0.605-0.151-0.906-0.228c-1.719-0.438-3.418-0.885-5.103-1.338c-0.604-0.163-1.202-0.328-1.802-0.492   c-1.253-0.343-2.496-0.69-3.729-1.042c-0.587-0.167-1.176-0.334-1.758-0.503c-1.605-0.466-3.197-0.938-4.767-1.417   c-0.188-0.058-0.378-0.114-0.566-0.172c-1.639-0.503-3.253-1.016-4.853-1.534c-0.536-0.174-1.065-0.349-1.596-0.524   c-1.182-0.39-2.353-0.783-3.513-1.181c-0.519-0.178-1.04-0.355-1.555-0.535c-1.525-0.532-3.035-1.069-4.519-1.615   c-0.105-0.039-0.212-0.077-0.317-0.115c-1.529-0.564-3.029-1.137-4.513-1.715c-0.474-0.184-0.94-0.371-1.41-0.557   c-1.09-0.432-2.168-0.868-3.233-1.307c-0.457-0.189-0.917-0.377-1.369-0.567c-1.411-0.592-2.805-1.189-4.17-1.794   c-0.061-0.027-0.123-0.054-0.183-0.081c-1.385-0.615-2.738-1.239-4.075-1.868c-0.415-0.195-0.823-0.392-1.234-0.589   c-0.983-0.47-1.952-0.944-2.908-1.422c-0.399-0.199-0.8-0.398-1.193-0.598c-1.266-0.644-2.514-1.292-3.73-1.948   c-0.023-0.012-0.047-0.024-0.07-0.036v0l0,0c0,0,0,0,0,0c5.088-9.112,10.723-17.877,16.916-26.207   c0.019,0.008,0.038,0.016,0.057,0.023c0.954-1.278,1.906-2.558,2.883-3.818c0.372-0.479,0.75-0.954,1.124-1.43   c2.528-3.212,5.134-6.359,7.819-9.437c0.346-0.396,0.685-0.798,1.033-1.192c9.11-10.306,19.098-19.814,29.835-28.428   c0.62-0.497,1.249-0.981,1.874-1.472c2.957-2.324,5.971-4.577,9.037-6.763c0.718-0.512,1.432-1.029,2.156-1.533   c3.379-2.353,6.817-4.626,10.32-6.807c0.314-0.196,0.62-0.405,0.935-0.599c3.971-2.447,8.018-4.786,12.138-7.004   c0.172-0.093,0.352-0.176,0.524-0.268c3.718-1.989,7.504-3.867,11.336-5.663c1.039-0.486,2.091-0.946,3.137-1.418   c3.06-1.381,6.153-2.699,9.279-3.954c1.219-0.489,2.438-0.976,3.667-1.445c2.133-0.815,4.287-1.584,6.45-2.336   c1.015-0.356,2.033-0.707,3.054-1.049c0.099-0.033,0.198-0.069,0.297-0.102c1.013-0.337,2.013-0.702,3.032-1.026   c4.337-1.378,8.719-2.656,13.159-3.791c0.359-0.092,0.727-0.16,1.086-0.25c0.338-0.085,0.681-0.157,1.021-0.241   c12.78-3.158,25.964-5.293,39.464-6.301c-0.231,0.017-0.463,0.032-0.694,0.05c-1.748,0.135-3.489,0.292-5.225,0.464   c-0.43,0.042-0.859,0.087-1.288,0.132c-1.731,0.181-3.458,0.375-5.178,0.592c-0.246,0.031-0.49,0.066-0.735,0.098   c-1.537,0.199-3.069,0.415-4.597,0.643c-0.446,0.067-0.893,0.132-1.338,0.201c-1.63,0.253-3.254,0.522-4.873,0.807   c-0.485,0.085-0.968,0.176-1.452,0.264c-1.374,0.251-2.745,0.513-4.111,0.787c-0.382,0.077-0.766,0.149-1.147,0.227   c-1.552,0.32-3.097,0.66-4.638,1.01c-0.59,0.134-1.179,0.269-1.767,0.407c-1.488,0.349-2.971,0.708-4.448,1.085   c-0.573,0.146-1.143,0.301-1.714,0.451c-1.071,0.282-2.138,0.571-3.203,0.867c-0.65,0.181-1.302,0.359-1.95,0.546   c-1.359,0.39-2.712,0.794-4.061,1.208c-0.746,0.229-1.49,0.464-2.232,0.699c-0.878,0.279-1.754,0.564-2.628,0.853   c-1.181,0.39-2.357,0.789-3.53,1.197c-0.752,0.261-1.503,0.524-2.251,0.793c-0.862,0.309-1.722,0.621-2.579,0.94   c-0.653,0.243-1.303,0.494-1.954,0.742c-1.446,0.552-2.885,1.117-4.317,1.696c-0.466,0.189-0.932,0.379-1.396,0.571   c-1.93,0.795-3.848,1.613-5.753,2.456c-0.07,0.031-0.141,0.061-0.212,0.093c-1.069,0.475-2.134,0.958-3.195,1.448   c-0.087,0.04-0.174,0.082-0.261,0.122c-2.103,0.974-4.189,1.978-6.258,3.01c-0.024,0.012-0.048,0.024-0.072,0.036   C62.125,60.524,11.255,129.844,1.659,211.791c-0.079,0.671-0.157,1.342-0.23,2.015c-0.105,0.973-0.208,1.946-0.302,2.923   c-0.096,0.998-0.182,1.999-0.266,3c-0.064,0.763-0.134,1.524-0.191,2.288c-0.123,1.654-0.226,3.314-0.315,4.977   c-0.033,0.622-0.059,1.246-0.088,1.869c-0.06,1.292-0.109,2.587-0.147,3.885c-0.017,0.576-0.036,1.151-0.049,1.729   C0.028,236.313,0,238.153,0,240C0,234.543,0.246,229.146,0.606,223.781z" fill="#ff9300"/><path d="M240,279.848c-33.801,0-66.114-2.177-95.845-6.14C144.1,275.804,144,277.89,144,280   c0,13.463,1.22,26.629,3.352,39.488c-61.537-8.544-110.926-25.295-136.581-46.354c25.634,21.069,74.95,37.861,136.478,46.406   c28.657,3.98,59.956,6.175,92.75,6.175c113.366,0,208.937-26.179,238.82-61.955c0.769-7.818,1.18-15.74,1.18-23.759   c0-4.017-0.25-7.971-0.446-11.939C436.406,258.703,345.42,279.848,240,279.848z" fill="#ff7400"/><path d="M1.18,263.76c-0.006-0.063-0.009-0.126-0.015-0.189c-0.375-3.842-0.667-7.708-0.863-11.601   C0.108,248.004,0,244.015,0,240C0,248.019,0.411,255.942,1.18,263.76C1.18,263.759,1.18,263.759,1.18,263.76z" fill="#ff7400"/><path d="M436.04,378.364c15.314-21.657,27.117-45.949,34.614-72.081   c-23.084,19.768-66.904,35.888-122.187,45.147l-31.322,4.361C292.859,358.523,266.929,360,240,360   c-29.495,0-57.79-1.772-84.039-5.023c3.923,11.931,8.84,23.4,14.502,34.423c-4.285-2.085-8.517-4.161-12.69-6.152   c4.122,1.967,8.303,4.018,12.534,6.077c22.102,10.756,45.617,21.739,69.693,22.104C319.685,412.636,390.552,398.475,436.04,378.364   z" fill="#ffedb9"/><path d="M9.352,306.304L9.352,306.304c7.501,26.137,19.309,50.433,34.63,72.092   c11.966,5.287,25.682,10.078,40.849,14.271c-15.167-4.193-28.883-8.985-40.849-14.272C28.662,356.737,16.853,332.441,9.352,306.304   z" fill="#ffedb9"/><path d="M251.461,479.721c0.769-0.036,1.536-0.08,2.303-0.123c1.125-0.064,2.249-0.134,3.37-0.214   c0.822-0.058,1.643-0.118,2.463-0.185c1.054-0.085,2.104-0.181,3.154-0.28c0.858-0.081,1.716-0.158,2.571-0.248   c0.982-0.103,1.959-0.221,2.938-0.336c3.862-0.454,7.696-0.997,11.499-1.633c0.501-0.084,1.004-0.162,1.505-0.249   c1.298-0.225,2.59-0.466,3.881-0.712c0.43-0.082,0.861-0.163,1.291-0.247c1.375-0.27,2.747-0.551,4.114-0.845   c0.26-0.056,0.52-0.113,0.779-0.17c35.915-7.845,68.818-23.743,96.751-45.683c-41.374,10.607-92.563,16.917-148.079,16.917   c-10.172,0-20.197-0.214-30.044-0.625c12.254,12.911,25.871,24.517,40.716,34.455C247.115,479.701,243.596,480,240,480   c1.922,0,3.837-0.028,5.748-0.073c0.644-0.015,1.285-0.042,1.928-0.062C248.94,479.825,250.202,479.781,251.461,479.721z" fill="#ff7400"/><path d="M221.198,479.197c-1.052-0.082-2.109-0.145-3.157-0.24c-5.991-0.545-11.918-1.312-17.773-2.291   c-0.97-0.162-1.932-0.344-2.897-0.518c-12.471-2.243-24.615-5.417-36.335-9.509c-0.373-0.129-0.751-0.248-1.123-0.38   c-5.923-2.101-11.737-4.433-17.437-6.976c-0.362-0.161-0.722-0.327-1.083-0.49c-11-4.974-21.563-10.748-31.61-17.249   c23.747,15.386,50.369,26.706,78.897,32.937c0.254,0.055,0.507,0.111,0.762,0.166c1.372,0.295,2.748,0.577,4.128,0.848   c0.424,0.083,0.848,0.163,1.273,0.244c1.295,0.247,2.593,0.488,3.895,0.715c0.495,0.086,0.993,0.164,1.489,0.247   c3.813,0.638,7.656,1.181,11.527,1.636c0.972,0.114,1.943,0.231,2.918,0.334c0.859,0.09,1.721,0.168,2.583,0.249   c1.046,0.099,2.093,0.194,3.143,0.279c0.821,0.066,1.644,0.127,2.468,0.185c1.121,0.079,2.244,0.15,3.369,0.214   c0.767,0.043,1.534,0.087,2.303,0.123c1.259,0.059,2.521,0.104,3.785,0.144c0.643,0.02,1.284,0.047,1.928,0.062   c1.911,0.045,3.826,0.073,5.749,0.073C233.665,480,227.408,479.679,221.198,479.197z" fill="#ff7400"/><path d="M98.265,433.599c3.612,2.65,7.3,5.2,11.061,7.649C105.563,438.801,101.877,436.247,98.265,433.599z" fill="#ff7400"/><path d="M144.092,273.674c0.513-19.438,3.371-38.285,8.234-56.311c0.001-0.004,0.002-0.008,0.003-0.012   c-0.018-0.002-0.036-0.005-0.053-0.007c-64.163-8.355-115.642-25.597-141.864-47.378c-1.55,5.089-2.893,10.267-4.111,15.493   c-0.193,0.83-0.391,1.657-0.575,2.49c-1.183,5.333-2.225,10.718-3.047,16.177c-0.007,0.051-0.012,0.103-0.02,0.153   c-0.771,5.148-1.319,10.367-1.757,15.616c-0.107,1.293-0.209,2.587-0.296,3.886C0.246,229.146,0,234.543,0,240   c0-4.017,0.25-7.971,0.447-11.938C29.746,248.868,81.136,265.272,144.092,273.674z" fill="#ff7400"/><path d="M1.166,263.571c0.006,0.063,0.008,0.126,0.015,0.189v0c0.001,0.001,0.002,0.002,0.003,0.004   c0.593,0.709,1.22,1.413,1.864,2.115c0.171,0.186,0.345,0.371,0.519,0.557c0.567,0.603,1.151,1.204,1.755,1.801   c0.104,0.103,0.204,0.207,0.31,0.311c0.729,0.712,1.487,1.419,2.269,2.122c0.116,0.105,0.237,0.209,0.355,0.313   c0.728,0.646,1.475,1.289,2.247,1.927c0.09,0.075,0.178,0.15,0.27,0.224c25.655,21.06,75.044,37.81,136.581,46.354   C145.22,306.629,144,293.463,144,280c0-2.11,0.1-4.196,0.155-6.292c0-0.008,0-0.016,0.001-0.024   c-0.021-0.003-0.042-0.006-0.063-0.009c-62.955-8.402-114.346-24.806-143.645-45.613C0.25,232.029,0,235.983,0,240   c0,4.015,0.108,8.004,0.303,11.97C0.498,255.862,0.791,259.728,1.166,263.571z" fill="#d55a00"/><path d="M176.153,160c6.664-11.516,14.278-22.403,22.699-32.604c0.002-0.003,0.004-0.006,0.007-0.008   c-0.01-0.001-0.021-0.001-0.031-0.002c-32.302-1.859-62.495-5.863-89.304-11.574c-0.016-0.003-0.031-0.007-0.047-0.01   c-1.413-0.301-2.814-0.609-4.208-0.919c-0.309-0.069-0.617-0.138-0.925-0.207c-1.299-0.292-2.591-0.588-3.872-0.889   c-0.345-0.081-0.688-0.163-1.032-0.245c-3.907-0.925-7.73-1.889-11.472-2.888c-0.48-0.128-0.965-0.254-1.442-0.384   c-0.942-0.255-1.872-0.515-2.803-0.775c-0.687-0.191-1.372-0.383-2.053-0.577c-0.854-0.244-1.702-0.49-2.547-0.738   c-0.761-0.223-1.517-0.448-2.271-0.675c-0.774-0.232-1.548-0.465-2.314-0.701c-0.891-0.274-1.771-0.553-2.65-0.832   c-0.622-0.197-1.25-0.391-1.865-0.591c-1.443-0.467-2.869-0.939-4.28-1.417c-0.497-0.168-0.983-0.341-1.476-0.51   c-0.984-0.339-1.965-0.68-2.932-1.025c-0.555-0.198-1.103-0.398-1.653-0.598c-0.907-0.33-1.808-0.662-2.7-0.996   c-0.531-0.199-1.06-0.398-1.585-0.599c-0.95-0.363-1.888-0.73-2.82-1.099c-0.434-0.172-0.872-0.342-1.302-0.515   c-1.352-0.543-2.689-1.091-4.002-1.646c-0.011,0.014-0.02,0.029-0.03,0.043c-2.897,3.898-5.648,7.908-8.301,11.987   c-0.383,0.586-0.756,1.179-1.134,1.769c-2.59,4.06-5.09,8.184-7.445,12.399c0,0-0.004,0.006-0.006,0.009c0,0,0,0,0,0l0,0   c0.023,0.012,0.047,0.024,0.07,0.037c1.216,0.656,2.464,1.304,3.73,1.948c0.394,0.2,0.795,0.399,1.193,0.598   c0.956,0.477,1.925,0.951,2.908,1.422c0.411,0.197,0.819,0.394,1.234,0.589c1.337,0.629,2.69,1.252,4.075,1.868   c0.061,0.027,0.123,0.053,0.183,0.081c1.365,0.605,2.759,1.202,4.17,1.794c0.453,0.19,0.912,0.378,1.369,0.567   c1.065,0.439,2.143,0.875,3.233,1.307c0.469,0.186,0.936,0.372,1.41,0.557c1.484,0.578,2.984,1.151,4.513,1.715   c0.105,0.039,0.212,0.077,0.317,0.115c1.485,0.546,2.994,1.083,4.519,1.615c0.515,0.18,1.036,0.357,1.555,0.535   c1.16,0.397,2.331,0.791,3.513,1.181c0.531,0.175,1.06,0.351,1.596,0.524c1.6,0.518,3.214,1.031,4.853,1.534   c0.188,0.058,0.378,0.114,0.566,0.172c1.571,0.479,3.162,0.951,4.767,1.417c0.583,0.169,1.171,0.336,1.758,0.503   c1.233,0.351,2.476,0.698,3.729,1.042c0.6,0.164,1.198,0.329,1.802,0.492c1.685,0.453,3.384,0.9,5.103,1.338   c0.301,0.077,0.604,0.152,0.906,0.228c1.625,0.41,3.267,0.813,4.922,1.21c0.656,0.157,1.317,0.312,1.978,0.467   c1.293,0.304,2.595,0.603,3.906,0.899c0.666,0.15,1.33,0.301,2,0.449c1.757,0.388,3.527,0.77,5.313,1.142   c0.417,0.087,0.838,0.173,1.256,0.259c1.669,0.344,3.352,0.681,5.046,1.011c0.725,0.142,1.456,0.28,2.185,0.419   c1.338,0.255,2.684,0.506,4.037,0.752c0.739,0.135,1.476,0.27,2.219,0.402c1.809,0.322,3.63,0.637,5.465,0.944   c0.539,0.09,1.081,0.178,1.622,0.267c1.701,0.279,3.412,0.552,5.134,0.819c0.789,0.122,1.583,0.24,2.375,0.36   c1.386,0.208,2.778,0.412,4.177,0.612c0.794,0.113,1.587,0.228,2.385,0.338c1.879,0.26,3.768,0.513,5.67,0.758   c0.617,0.079,1.237,0.156,1.856,0.234c1.745,0.219,3.499,0.432,5.263,0.639c0.839,0.098,1.684,0.193,2.527,0.288   c1.432,0.162,2.87,0.318,4.313,0.471c0.843,0.089,1.685,0.179,2.532,0.265c1.95,0.198,3.91,0.389,5.88,0.572   C175.712,159.957,175.931,159.979,176.153,160z" fill="#ffffff"/><path d="M250.672,479.544c-14.845-9.939-28.462-21.544-40.716-34.455c-0.023-0.025-0.048-0.048-0.071-0.073   c-0.042-0.002-0.083-0.004-0.124-0.006c-38.315-1.614-73.961-6.195-104.865-13.105c-0.007-0.001-0.013-0.003-0.02-0.004   c-2.082-0.466-4.139-0.944-6.178-1.43c-0.304-0.073-0.606-0.146-0.91-0.219c-1.974-0.476-3.932-0.958-5.863-1.453   c-0.001,0-0.003-0.001-0.004-0.001l0,0c0.002,0.001,0.004,0.003,0.006,0.004c1.697,1.333,3.418,2.635,5.151,3.922   c0.395,0.293,0.791,0.585,1.188,0.876c3.613,2.648,7.299,5.203,11.061,7.649c0.153,0.099,0.305,0.198,0.458,0.297   c10.048,6.501,20.61,12.275,31.61,17.249c0.361,0.163,0.72,0.329,1.083,0.49c5.699,2.543,11.513,4.875,17.437,6.976   c0.372,0.132,0.75,0.25,1.123,0.38c11.721,4.092,23.865,7.266,36.335,9.509c0.965,0.173,1.927,0.356,2.897,0.518   c5.855,0.979,11.782,1.745,17.773,2.291c1.048,0.095,2.104,0.158,3.157,0.24C227.408,479.679,233.665,480,240,480   C243.596,480,247.115,479.701,250.672,479.544z" fill="#d55a00"/><path d="M168,416c0.5-11.5-6.333-18.333-16-24c-12.208-7.156-33.5-12-32,0C121.5,404,167.5,427.5,168,416z" fill="#ffffff"/><ellipse cx="252px" cy="216px" rx="12px" ry="8px" fill="#ff9300"/></g></defs><g fi:class="KUsePattern" opacity="0.12"><pattern id="pattern_L1_0" width="350" height="350" patternUnits="userSpaceOnUse"><use xlink:href="#L1_0" x="-350" y="-350"/><use xlink:href="#L1_0" x="0" y="-350"/><use xlink:href="#L1_0" x="350" y="-350"/><use xlink:href="#L1_0" x="-350" y="0"/><use xlink:href="#L1_0" x="0" y="0"/><use xlink:href="#L1_0" x="350" y="0"/><use xlink:href="#L1_0" x="-350" y="350"/><use xlink:href="#L1_0" x="0" y="350"/><use xlink:href="#L1_0" x="350" y="350"/></pattern><rect x="0" y="0" width="100%" height="100%" fill="url(#pattern_L1_0)"/></g><g fi:class="KUsePattern" opacity="0.11"><pattern id="pattern_L1_1" width="350" height="350" patternUnits="userSpaceOnUse"><use xlink:href="#L1_1" x="-350" y="-350"/><use xlink:href="#L1_1" x="0" y="-350"/><use xlink:href="#L1_1" x="350" y="-350"/><use xlink:href="#L1_1" x="-350" y="0"/><use xlink:href="#L1_1" x="0" y="0"/><use xlink:href="#L1_1" x="350" y="0"/><use xlink:href="#L1_1" x="-350" y="350"/><use xlink:href="#L1_1" x="0" y="350"/><use xlink:href="#L1_1" x="350" y="350"/></pattern><rect x="0" y="0" width="100%" height="100%" fill="url(#pattern_L1_1)"/></g><g fi:class="KUsePattern" opacity="0.07"><pattern id="pattern_L1_2" width="350" height="350" patternUnits="userSpaceOnUse"><use xlink:href="#L1_2" x="-350" y="-350"/><use xlink:href="#L1_2" x="0" y="-350"/><use xlink:href="#L1_2" x="350" y="-350"/><use xlink:href="#L1_2" x="-350" y="0"/><use xlink:href="#L1_2" x="0" y="0"/><use xlink:href="#L1_2" x="350" y="0"/><use xlink:href="#L1_2" x="-350" y="350"/><use xlink:href="#L1_2" x="0" y="350"/><use xlink:href="#L1_2" x="350" y="350"/></pattern><rect x="0" y="0" width="100%" height="100%" fill="url(#pattern_L1_2)"/></g></svg>